# xmcd CD database file
#
# Track frame offsets:
#	150
#	15725
#	30970
#	46020
#	66423
#	86085
#	106127
#	118788
#	133069
#	145799
#	161720
#	180323
#	206581
#	225257
#	247231
#	260541
#	274058
#	295291
#	309739
#	333501
#
# Disc length: 4622 seconds
#
# Revision: 0
# Processed by: cddbd v1.5.1PL2 Copyright (c) Steve Scherf et al.
# Submitted via: CDex 1.51
#
DISCID=20120c14
DTITLE=Various Artist - Hamburger Jazz für New Orleans - CD2
DYEAR=2005
DGENRE=Jazz
TTITLE0=Jazz Lips - Mississippi Blues
TTITLE1=Dr. Jazz Companie - O' Mona
TTITLE2=Old Merry Tale Jazzband - Ole Miss
TTITLE3=Volker Reckeweg - Once In A While
TTITLE4=Joja Wendt - On The Sunny Side Of The Street
TTITLE5=Fuhlisch-Geisler-Quintett - Salute To Charlie Christian
TTITLE6=Jo Bohnsack - Saturday Fish Fry
TTITLE7=Hot Shots - Skit-Dat-De Dat
TTITLE8=New Orleans Quarter - Sobbin' Blues
TTITLE9=Harlem Jump - Swing That Music
TTITLE10=Mountain Village Jazzband - Swinging The Blues
TTITLE11=Hamburg New Orleans Allstars - Tell Me Your Dreams
TTITLE12=Marcel Horst - The Day Since You've Gone
TTITLE13=Black Jazz - Too Busy
TTITLE14=Canalstreet Jazzband - Venetian Moon
TTITLE15=Peter "Banjo" Meyer - Waiting For The Robert E. Lee
TTITLE16=Les Efants du Jazz - Way Down Yonder In New Orleans
TTITLE17=Louisiana All Stars Jazzband - When It's Sleepy Time Down South
TTITLE18=Revival Jazzband - Wiebke
TTITLE19=Skiffle Track - Going Home
EXTD=YEAR: 2005
EXTT0=
EXTT1=
EXTT2=
EXTT3=
EXTT4=
EXTT5=
EXTT6=
EXTT7=
EXTT8=
EXTT9=
EXTT10=
EXTT11=
EXTT12=
EXTT13=
EXTT14=
EXTT15=
EXTT16=
EXTT17=
EXTT18=
EXTT19=
PLAYORDER=
